<?xml version="1.0" encoding="UTF-8" standalone="no"?>
<!-- Generator: Adobe Illustrator 28.1.0, SVG Export Plug-In . SVG Version: 6.00 Build 0)  -->

<svg
   version="1.1"
   id="Capa_1"
   x="0px"
   y="0px"
   viewBox="0 0 800 800"
   style="enable-background:new 0 0 800 800;"
   xml:space="preserve"
   sodipodi:docname="female.svg"
   inkscape:version="1.3 (0e150ed6c4, 2023-07-21)"
   xmlns:inkscape="http://www.inkscape.org/namespaces/inkscape"
   xmlns:sodipodi="http://sodipodi.sourceforge.net/DTD/sodipodi-0.dtd"
   xmlns="http://www.w3.org/2000/svg"
   xmlns:svg="http://www.w3.org/2000/svg">&#10;<style
   type="text/css"
   id="style1">&#10;	.st0{fill:none;stroke:#000000;stroke-width:0.9999;stroke-miterlimit:10;}&#10;	.st1{fill:none;stroke:#000000;stroke-width:0.9999;stroke-linejoin:round;stroke-miterlimit:10;}&#10;	.st2{fill:none;stroke:#000000;stroke-width:0.9999;stroke-linecap:round;stroke-linejoin:round;stroke-miterlimit:10;}&#10;	.st3{fill:none;stroke:#000000;stroke-width:1.3301;}&#10;</style>&#10;<defs
   id="defs1">&#10;	&#10;		<inkscape:path-effect
   copytype="single_stretched"
   effect="skeletal"
   fuse_tolerance="0"
   hide_knot="false"
   id="path-effect5"
   is_visible="true"
   lpeversion="1"
   normal_offset="0"
   pattern="M 0,18.867925 C 0,8.4528302 8.4528302,0 18.867925,0 c 10.415094,0 18.867924,8.4528302 18.867924,18.867925 0,10.415094 -8.45283,18.867924 -18.867924,18.867924 C 8.4528302,37.735849 0,29.283019 0,18.867925 Z"
   prop_scale="1"
   prop_units="false"
   scale_y_rel="false"
   spacing="0"
   tang_offset="0"
   vertical_pattern="false">&#10;		</inkscape:path-effect>&#10;	&#10;		<inkscape:path-effect
   apply_no_weight="true"
   apply_with_weight="true"
   effect="bspline"
   helper_size="0"
   id="path-effect4"
   is_visible="true"
   lpeversion="1.3"
   only_selected="false"
   steps="2"
   uniform="false"
   weight="33.333333">&#10;		</inkscape:path-effect>&#10;	&#10;		<inkscape:path-effect
   copytype="single_stretched"
   effect="skeletal"
   fuse_tolerance="0"
   hide_knot="false"
   id="path-effect3"
   is_visible="true"
   lpeversion="1"
   normal_offset="0"
   pattern="M 0,18.867925 C 0,8.4528302 8.4528302,0 18.867925,0 c 10.415094,0 18.867924,8.4528302 18.867924,18.867925 0,10.415094 -8.45283,18.867924 -18.867924,18.867924 C 8.4528302,37.735849 0,29.283019 0,18.867925 Z"
   prop_scale="1"
   prop_units="false"
   scale_y_rel="false"
   spacing="0"
   tang_offset="0"
   vertical_pattern="false">&#10;		</inkscape:path-effect>&#10;</defs>&#10;<sodipodi:namedview
   bordercolor="#666666"
   borderopacity="1"
   gridtolerance="10"
   guidetolerance="10"
   id="namedview4"
   objecttolerance="10"
   pagecolor="#ffffff"
   showgrid="false"
   showguides="false"
   inkscape:showpageshadow="2"
   inkscape:pageopacity="0.0"
   inkscape:pagecheckerboard="0"
   inkscape:deskcolor="#d1d1d1"
   inkscape:zoom="0.97125"
   inkscape:cx="410.29601"
   inkscape:cy="384.04118"
   inkscape:window-width="1450"
   inkscape:window-height="1020"
   inkscape:window-x="2812"
   inkscape:window-y="327"
   inkscape:window-maximized="0"
   inkscape:current-layer="Capa_1">&#10;	<sodipodi:guide
   id="guide4138"
   orientation="0,1"
   position="514.62963,596.66667"
   inkscape:locked="false" />&#10;	<sodipodi:guide
   id="guide4140"
   orientation="0,1"
   position="153.33333,600.37037"
   inkscape:locked="false" />&#10;	<sodipodi:guide
   id="guide4144"
   orientation="0,1"
   position="195.92593,567.03704"
   inkscape:locked="false" />&#10;	<sodipodi:guide
   id="guide4146"
   orientation="0,1"
   position="194.07407,538.88889"
   inkscape:locked="false" />&#10;	<sodipodi:guide
   id="guide4148"
   orientation="0,1"
   position="202.96296,524.81482"
   inkscape:locked="false" />&#10;	<sodipodi:guide
   id="guide4150"
   orientation="0,1"
   position="647.87037,511.75926"
   inkscape:locked="false" />&#10;	<sodipodi:guide
   id="guide4152"
   orientation="0,1"
   position="188.51852,482.5926"
   inkscape:locked="false" />&#10;	<sodipodi:guide
   id="guide4154"
   orientation="0,1"
   position="188.33333,414.25926"
   inkscape:locked="false" />&#10;	<sodipodi:guide
   id="guide4156"
   orientation="0,1"
   position="157.22222,475.92593"
   inkscape:locked="false" />&#10;	<sodipodi:guide
   id="guide4158"
   orientation="0,1"
   position="178.14815,463.33334"
   inkscape:locked="false" />&#10;	<sodipodi:guide
   id="guide4160"
   orientation="0,1"
   position="260.55556,430.74074"
   inkscape:locked="false" />&#10;	<sodipodi:guide
   id="guide4162"
   orientation="0,1"
   position="294.62963,419.44445"
   inkscape:locked="false" />&#10;	<sodipodi:guide
   id="guide4164"
   orientation="0,1"
   position="315.92593,383.33334"
   inkscape:locked="false" />&#10;	<sodipodi:guide
   id="guide4166"
   orientation="0,1"
   position="301.2963,374.62963"
   inkscape:locked="false" />&#10;	<sodipodi:guide
   id="guide4168"
   orientation="0,1"
   position="290.55556,353.51852"
   inkscape:locked="false" />&#10;	<sodipodi:guide
   id="guide4170"
   orientation="0,1"
   position="256.2963,330.18519"
   inkscape:locked="false" />&#10;	<sodipodi:guide
   id="guide4172"
   orientation="0,1"
   position="246.85185,266.85185"
   inkscape:locked="false" />&#10;	<sodipodi:guide
   id="guide4174"
   orientation="0,1"
   position="269.07407,190"
   inkscape:locked="false" />&#10;	<sodipodi:guide
   id="guide4176"
   orientation="0,1"
   position="288.7037,137.03704"
   inkscape:locked="false" />&#10;	<sodipodi:guide
   id="guide4178"
   orientation="0,1"
   position="276.48148,87.222223"
   inkscape:locked="false" />&#10;	<sodipodi:guide
   id="guide4180"
   orientation="1,0"
   position="188.88889,486.66667"
   inkscape:locked="false" />&#10;	<sodipodi:guide
   id="guide4219"
   orientation="0,1"
   position="469.16667,575.46297"
   inkscape:locked="false" />&#10;	<sodipodi:guide
   id="guide4225"
   orientation="0,1"
   position="107.86773,554.27594"
   inkscape:locked="false" />&#10;	<sodipodi:guide
   id="guide4272"
   orientation="0,1"
   position="171.76039,312.95844"
   inkscape:locked="false" />&#10;	<sodipodi:guide
   id="guide4278"
   orientation="0,1"
   position="171.0269,235.08558"
   inkscape:locked="false" />&#10;	<sodipodi:guide
   id="guide4280"
   orientation="0,1"
   position="178.85086,239.6088"
   inkscape:locked="false" />&#10;	<sodipodi:guide
   id="guide4282"
   orientation="0,1"
   position="185.94132,221.63814"
   inkscape:locked="false" />&#10;	<sodipodi:guide
   id="guide4284"
   orientation="0,1"
   position="187.65281,204.64548"
   inkscape:locked="false" />&#10;	<sodipodi:guide
   id="guide4290"
   orientation="0,1"
   position="143.64303,165.15893"
   inkscape:locked="false" />&#10;	<sodipodi:guide
   id="guide4304"
   orientation="0,1"
   position="191.56479,82.885086"
   inkscape:locked="false" />&#10;	<sodipodi:guide
   id="guide4306"
   orientation="0,1"
   position="193.03179,78.606357"
   inkscape:locked="false" />&#10;	<sodipodi:guide
   id="guide4308"
   orientation="0,1"
   position="194.13203,67.481663"
   inkscape:locked="false" />&#10;	<sodipodi:guide
   id="guide4310"
   orientation="0,1"
   position="192.17604,60.635697"
   inkscape:locked="false" />&#10;	<sodipodi:guide
   id="guide4312"
   orientation="0,1"
   position="190.22005,55.745722"
   inkscape:locked="false" />&#10;	<sodipodi:guide
   id="guide4314"
   orientation="0,1"
   position="191.56479,52.567237"
   inkscape:locked="false" />&#10;	<sodipodi:guide
   id="guide4316"
   orientation="0,1"
   position="191.68704,41.687042"
   inkscape:locked="false" />&#10;	<sodipodi:guide
   id="guide4318"
   orientation="0,1"
   position="198.41076,38.264059"
   inkscape:locked="false" />&#10;	<sodipodi:guide
   id="guide4320"
   orientation="0,1"
   position="192.90954,36.674817"
   inkscape:locked="false" />&#10;	<sodipodi:guide
   id="guide4322"
   orientation="0,1"
   position="193.76528,29.095355"
   inkscape:locked="false" />&#10;	<sodipodi:guide
   id="guide4324"
   orientation="0,1"
   position="190.3423,21.882641"
   inkscape:locked="false" />&#10;	<sodipodi:guide
   id="guide4334"
   orientation="0,1"
   position="203.51852,659.72223"
   inkscape:locked="false" />&#10;	<sodipodi:guide
   id="guide4336"
   orientation="0,1"
   position="212.77778,663.24074"
   inkscape:locked="false" />&#10;	<sodipodi:guide
   id="guide4338"
   orientation="0,1"
   position="210.55556,643.05556"
   inkscape:locked="false" />&#10;	<sodipodi:guide
   id="guide4340"
   orientation="0,1"
   position="212.22222,641.48149"
   inkscape:locked="false" />&#10;	<sodipodi:guide
   id="guide4342"
   orientation="0,1"
   position="219.07407,635.27778"
   inkscape:locked="false" />&#10;	<sodipodi:guide
   id="guide4344"
   orientation="0,1"
   position="219.07407,625.18519"
   inkscape:locked="false" />&#10;	<sodipodi:guide
   id="guide4346"
   orientation="0,1"
   position="243.64303,699.75551"
   inkscape:locked="false" />&#10;	<sodipodi:guide
   id="guide4494"
   orientation="1,0"
   position="563.70968,600.37037"
   inkscape:locked="false" />&#10;</sodipodi:namedview>&#10;<path
   class="st0"
   d="m 404.3,457.5 c -1.2,14 8.3,87.3 13.1,116.1 2.3,13.6 8.7,35.9 6.4,47.7 -3.3,16.5 -4.2,37.7 -2.4,50.1 1.1,7.5 1.2,41.4 -0.4,55 -2,16.7 -7.6,40.8 -7.6,40.8 -7.3,25.3 -8.1,31.4 -2.9,33.6 5.2,2.2 8.1,-2.6 8.1,-2.6 5.1,3.3 8.7,-0.8 8.7,-0.8 4.4,3.7 9.6,-0.4 9.6,-0.4 5.5,2.9 9.7,-1.6 9.7,-1.6 2.7,3 6.7,0.9 7,-2.6 0.6,-7.6 -1.4,-10.8 -7.4,-29.9 -6,-19.1 3.5,-42.8 3.5,-42.8 23.3,-69 24.5,-87.3 15.2,-113.4 -2.6,-7.5 -2.3,-10.3 -2.1,-13.7 1.1,-21.4 0.8,-37.8 4.2,-49.8 6.6,-23.2 24.59686,-92.59757 21.80854,-120.36159 0.6,-5 1.7047,1.12561 1.5047,-4.17439 -3.7,0.4 -21.74501,1.97196 -41.94501,10.27196 -2.4,1 -9.16823,2.46402 -11.46823,3.66402 -15.6,8.4 -28.9,21.7 -31.9,24.4 -0.4,0.1 -0.6,0.3 -0.7,0.5 z"
   id="leg_left"
   sodipodi:nodetypes="ccccccscccccscccccccccc" />&#10;<path
   class="st0"
   d="m 356.2,429.1 c -20.6,-8.4 -43.98038,-9.40794 -47.38038,-9.80794 -0.2,5.3 0,9.77196 0.6,14.77196 3.3,27.5 20.28038,85.13598 23.68038,109.03598 2.1,15 1.8,33 4.2,49.8 0.5,3.5 0.6,6.3 -2.1,13.7 -9.3,26 -8.1,44.3 15.2,113.4 0,0 7.2,15.3 3.5,42.8 0,0 -10.6,24.9 -6.9,30.8 0.8,1.3 3.6,2.8 6.3,0.9 0,0 4.4,5.2 10,2.4 0,0 5.1,4.1 9.5,0.4 0,0 3.5,4.1 8.7,0.8 0,0 3.2,2.8 7,2 4.7,-1 7.9,-4.7 -1.8,-32.9 0,0 -5.1,-25.1 -7.5,-40.8 -2.1,-13.5 -1.5,-47.5 -0.4,-55 1.8,-12.5 0.8,-33.7 -2.4,-50.1 -2.3,-11.8 4,-34 6.4,-47.7 4.8,-28.7 14.3,-102 13.1,-116.1 -0.1,-0.1 -18.8,-19.8 -39.7,-28.4 z"
   id="leg_right"
   sodipodi:nodetypes="ccscscccccccccccccccc" />&#10;<path
   class="st1"
   d="m 549.2,396.4 c -4.7,-5.9 -10.8,-13.9 -12.6,-18.6 -2.9,-8 -5.1,-33.6 -5.1,-33.6 -8.10721,-29.2704 -9.4296,-40.826 -9.4296,-40.826 -12.8,-20.5 -16.22961,-60.7592 -16.22961,-60.7592 l -3.6888,-61.926 c -4.5444,-41.22561 -21.47399,-44.748 -31.47399,-47.948 -3.9,5.9 -2.578,19.8592 -5.878,37.6592 -2.8,15.4 4.4,55.2 4.4,55.2 5.8,46 8.9,69.2 8.9,69.2 9.82561,30.2036 21.5,67.2 21.5,67.2 11,16.8 9,31.1 9,32.3 0,4.8 0.1,19.7 1,26.9 0.9,7.2 0.7,13.4 0.3,17.7 -1.4,14.9 -1.2,20 1.6,20 2.2,0 2.8,-4 3.5,-8 0.6,-3.5 1.5,-7.3 2.2,-11.5 0.5,-3.3 0.8,-5.6 2.1,-6.1 1.2,-0.5 2.2,0 2.2,2.9 0.1,8.2 0.7,19.8 0.9,24.4 0.3,5.7 0.6,8.9 3.8,8.7 3.2,-0.2 3.8,-3.1 3.9,-4.4 0.1,-3.5 0.2,-7.2 0.2,-11.2 0,-5.1 0.2,-9.6 0.1,-12.5 -0.2,-4.4 0,-6.7 1.4,-7 1.3,-0.3 2.6,12.9 3.9,16.6 1.6,4.8 2.5,8.1 3.5,11.2 2,6.5 3.5,9.5 6,8.5 3.4,-1.3 2.3,-8.8 0.4,-16.6 -0.9,-3.9 -1.8,-8.6 -2.4,-12.5 -0.7,-4.5 -2.2,-8.8 -1,-9.2 1.2,-0.4 3.3,5.7 4.4,8.5 2.9,7.1 4.1,10.6 5,12.8 3.2,8 5.8,9.1 8.1,8.4 1.2,-0.4 2.3,-2 0.5,-8.3 -1.1,-3.9 -3.4,-9.1 -4.7,-13.3 -1.6,-5.2 -3.4,-11.1 -4.8,-16 -1.9,-6.4 -2.2,-9.1 -0.6,-10 1.7,-0.9 2.6,0.8 3.7,3.1 1.9,3.7 3.6,8.3 7.3,11.3 2.7,2.2 5.3,3.7 7.3,1.7 2.9,-2.9 1.3,-5.2 -2.4,-11.1 -4.7,-7.2 -11.6,-16.4 -16.8,-22.9 z"
   id="arm_left"
   sodipodi:nodetypes="cccccccccccsscscccccscscccccccscccccccccscc" />&#10;<path
   class="st1"
   d="m 250.6,396.4 c 4.7,-5.9 10.8,-13.9 12.6,-18.6 2.9,-8 5.1,-33.6 5.1,-33.6 6.04801,-27.2112 8.4,-43.4 8.4,-43.4 12.8,-20.5 15.2,-58.7 15.2,-58.7 l 8.83681,-75.31081 c 3,-29.9 21.9888,-29.30399 31.9888,-32.50399 3.9,5.9 -1.0256,18.3148 2.27439,36.1148 2.8,15.4 -4.4,55.2 -4.4,55.2 -5.8,46 -8.9,69.2 -8.9,69.2 -8.28121,24.5408 -21.5,67.2 -21.5,67.2 -11,16.8 -9,31.1 -9,32.3 0,4.8 -0.1,19.7 -1,26.9 -0.9,7.2 -0.7,13.4 -0.3,17.7 1.4,14.9 1.2,20 -1.6,20 -2.2,0 -2.8,-4 -3.5,-8 -0.6,-3.5 -1.5,-7.3 -2.2,-11.5 -0.5,-3.3 -0.8,-5.6 -2.1,-6.1 -1.2,-0.5 -2.2,0 -2.2,2.9 -0.1,8.2 -0.7,19.8 -0.9,24.4 -0.3,5.7 -0.6,8.9 -3.8,8.7 -3.2,-0.2 -3.8,-3.1 -3.9,-4.4 -0.1,-3.5 -0.2,-7.2 -0.2,-11.2 0,-5.1 -0.2,-9.6 -0.1,-12.5 0.2,-4.4 0,-6.7 -1.4,-7 -1.3,-0.3 -2.6,12.9 -3.9,16.6 -1.6,4.8 -2.5,8.1 -3.5,11.2 -2,6.5 -3.5,9.5 -6,8.5 -3.4,-1.3 -2.3,-8.8 -0.4,-16.6 0.9,-3.9 1.8,-8.6 2.4,-12.5 0.7,-4.5 2.2,-8.8 1,-9.2 -1.2,-0.4 -3.3,5.7 -4.4,8.5 -2.9,7.1 -4.1,10.6 -5,12.8 -3.2,8 -5.8,9.1 -8.1,8.4 -1.2,-0.4 -2.3,-2 -0.5,-8.3 1.1,-3.9 3.4,-9.1 4.7,-13.3 1.6,-5.2 3.4,-11.1 4.8,-16 1.9,-6.4 2.2,-9.1 0.6,-10 -1.7,-0.9 -2.6,0.8 -3.7,3.1 -1.9,3.7 -3.6,8.3 -7.3,11.3 -2.7,2.2 -5.3,3.7 -7.3,1.7 -2.9,-2.9 -1.3,-5.2 2.4,-11.1 4.7,-7.2 11.7,-16.4 16.8,-22.9 z"
   id="arm_right"
   sodipodi:nodetypes="cccccccccccsscscccccscscccccccscccccccccscc" />&#10;<path
   class="st0"
   d="m 327.11971,347.13859 c 0,0 0,0.1 0,0 0,0 -16.8686,37.07388 -18.29257,71.04994 3.72423,0.39972 21.35958,2.49824 43.92406,10.89233 22.89309,8.59394 40.19984,25.18226 43.37639,28.28007 0,0 2.08119,1.29909 4.27191,1.29909 2.19073,0 5.03868,-1.39902 5.03868,-1.39902 0.10953,-0.1 0.3286,-0.19986 0.65721,-0.49964 4.491,-4.29698 11.92059,-13.64047 29.11779,-21.83469 2.51934,-1.2991 10.97251,-4.94645 13.60139,-5.94574 22.12633,-8.29416 34.61367,-10.49261 38.66651,-10.99226 -1.31443,-33.87613 -13.03502,-70.95001 -13.03502,-70.95001 v 0 c -5.25774,1.59887 -37.24235,10.79239 -73.71794,10.79239 -36.69468,0.1 -68.78882,-9.19352 -73.60841,-10.69246 z"
   id="abdomen"
   sodipodi:nodetypes="cccccsccccccscc" />&#10;&#10;&#10;<path
   class="st0"
   d="m 465,170.4 c 3.3,-17.8 1.46319,-32.274 5.36319,-38.174 -4.7,-1.5 0.23681,1.074 0.23681,1.074 -32.8,-4.9 -43.47761,-14.9852 -43.47761,-14.9852 0,0 -2.27799,10.20759 -25.47799,10.20759 -23.2,0 -34.7444,-10.72239 -34.7444,-10.72239 0,0 -0.3816,11.6296 -33.1816,16.5296 L 335.2,170.9 c 2.8,15.4 3.9368,116.57606 3.9368,116.57606 0,0 -6.83307,39.05992 -11.23307,59.35992 4.4,1.5 38.69627,11.16402 72.29627,11.16402 33.3,0 67.86028,-8.83598 72.76028,-10.43598 -4.5,-20.2 -11.59709,-59.05836 -11.59709,-59.05836 0,0 0.20613,-25.29966 0.75611,-52.6684 C 462.67743,208.06245 463.58969,178.1567 465,170.4 Z"
   id="torso"
   sodipodi:nodetypes="ccccscccccsccsc" />&#10;<path
   class="st2"
   d="m 401.5444,101.80759 c -17.2,0 -22.57799,-5.900383 -22.57799,-5.900383 0,0 -1.57587,13.261453 -10.20721,21.892793 l -1.5444,1.5444 c 0,0 8.9704,9.17799 32.1704,9.17799 23.2,0 28.56679,-10.72239 28.56679,-10.72239 -6.9,-10 -5.0592,-21.892793 -5.0592,-21.892793 0,0 -4.14839,5.900383 -21.34839,5.900383 z"
   id="neck"
   sodipodi:nodetypes="scscsccs" />&#10;<path
   class="st0"
   d="M442.9,53.6c-2.1,0.1-2.7-1-2.8-1.8c0,0.7-0.2,3.6-0.7,9c-0.6,6.3-1.2,10.7-1.2,10.7  C447.8,64.2,447.3,53.5,442.9,53.6z"
   id="ear_left" />&#10;<path
   class="st0"
   d="M357,53.6c-4.4-0.1-4.8,10.5,4.6,17.9c-0.2-1.6-0.7-5.7-1.1-10.6c-0.3-3.7-0.6-6.9-0.7-8.9  C359.7,52.8,359.1,53.7,357,53.6z"
   id="ear_right" />&#10;<path
   class="st3"
   d="M435.5,19.7C425.3,1.3,403.3,0,403.3,0h-6.5c0,0-22,1.3-32.3,19.7c-0.7,1.2-1.3,2.4-1.8,3.8  c4,5.1,14.2,13.5,37.4,13.5c23.1,0,33.3-8.4,37.4-13.5C436.8,22.2,436.2,20.9,435.5,19.7z"
   id="brain" />&#10;<path
   class="st0"
   d="m 400,37 c -23.1,0 -33.3,-8.4 -37.4,-13.5 -2.9,6.9 -4.2,15.8 -2.8,27.3 0,0 0.2,0.6 0,1.2 0.1,2 0.4,5.2 0.7,8.9 0.4,5 1,9.2 1.1,10.7 0,0 2.3,12.4 8,17.1 v 0 c 0,0 13.5148,12.59279 30.8148,12.59279 z"
   id="face_right"
   sodipodi:nodetypes="ccccccsccc" />&#10;<path
   class="st0"
   d="M 437.4,23.5 C 433.3,28.6 423.1,37 400,37 v 65.32239 c 17.2,0 30.3,-13.62239 30.3,-13.62239 5.8,-4.7 8,-17.1 8,-17.1 v 0 c 0,-0.1 0.7,-4.4 1.2,-10.7 0.5,-5.4 0.6,-8.3 0.7,-9 -0.1,-0.6 0.1,-1 0.1,-1 1.3,-11.6 0,-20.5 -2.9,-27.4 z"
   id="face_left"
   sodipodi:nodetypes="cccccscccc" />&#10;</svg>
