<svg xmlns="http://www.w3.org/2000/svg" xmlns:ns1="http://sodipodi.sourceforge.net/DTD/sodipodi-0.dtd" xmlns:ns2="http://www.inkscape.org/namespaces/inkscape" id="Capa_1" style="enable-background:new 0 0 800 800;" version="1.1" viewBox="0 0 800 800" x="0px" y="0px" ns1:docname="standing body.svg" ns2:version="1.3 (0e150ed6c4, 2023-07-21)" xml:space="preserve">
<style id="style1" type="text/css">
	.st0{fill:none;stroke:#000000;stroke-width:0.9999;stroke-miterlimit:10;}
	.st1{fill:none;stroke:#000000;stroke-width:0.9999;stroke-linejoin:round;stroke-miterlimit:10;}
	.st2{fill:none;stroke:#000000;stroke-width:0.9999;stroke-linecap:round;stroke-linejoin:round;stroke-miterlimit:10;}
	.st3{fill:none;stroke:#000000;stroke-width:1.3301;}
</style>
<defs id="defs1">
	
		<ns2:path-effect copytype="single_stretched" effect="skeletal" fuse_tolerance="0" hide_knot="false" id="path-effect5" is_visible="true" lpeversion="1" normal_offset="0" pattern="M 0,18.867925 C 0,8.4528302 8.4528302,0 18.867925,0 c 10.415094,0 18.867924,8.4528302 18.867924,18.867925 0,10.415094 -8.45283,18.867924 -18.867924,18.867924 C 8.4528302,37.735849 0,29.283019 0,18.867925 Z" prop_scale="1" prop_units="false" scale_y_rel="false" spacing="0" tang_offset="0" vertical_pattern="false">
		</ns2:path-effect>
	
		<ns2:path-effect apply_no_weight="true" apply_with_weight="true" effect="bspline" helper_size="0" id="path-effect4" is_visible="true" lpeversion="1.3" only_selected="false" steps="2" uniform="false" weight="33.333333">
		</ns2:path-effect>
	
		<ns2:path-effect copytype="single_stretched" effect="skeletal" fuse_tolerance="0" hide_knot="false" id="path-effect3" is_visible="true" lpeversion="1" normal_offset="0" pattern="M 0,18.867925 C 0,8.4528302 8.4528302,0 18.867925,0 c 10.415094,0 18.867924,8.4528302 18.867924,18.867925 0,10.415094 -8.45283,18.867924 -18.867924,18.867924 C 8.4528302,37.735849 0,29.283019 0,18.867925 Z" prop_scale="1" prop_units="false" scale_y_rel="false" spacing="0" tang_offset="0" vertical_pattern="false">
		</ns2:path-effect>
</defs>
<ns1:namedview bordercolor="#666666" borderopacity="1" gridtolerance="10" guidetolerance="10" id="namedview4" objecttolerance="10" pagecolor="#ffffff" showgrid="false" showguides="false" ns2:current-layer="Capa_1" ns2:cx="400" ns2:cy="400" ns2:deskcolor="#d1d1d1" ns2:pagecheckerboard="0" ns2:pageopacity="0.0" ns2:showpageshadow="2" ns2:window-height="991" ns2:window-maximized="1" ns2:window-width="1920" ns2:window-x="-9" ns2:window-y="-9" ns2:zoom="0.97125">
	<ns1:guide id="guide4138" orientation="0,1" position="514.62963,596.66667" ns2:locked="false" />
	<ns1:guide id="guide4140" orientation="0,1" position="153.33333,600.37037" ns2:locked="false" />
	<ns1:guide id="guide4144" orientation="0,1" position="195.92593,567.03704" ns2:locked="false" />
	<ns1:guide id="guide4146" orientation="0,1" position="194.07407,538.88889" ns2:locked="false" />
	<ns1:guide id="guide4148" orientation="0,1" position="202.96296,524.81482" ns2:locked="false" />
	<ns1:guide id="guide4150" orientation="0,1" position="647.87037,511.75926" ns2:locked="false" />
	<ns1:guide id="guide4152" orientation="0,1" position="188.51852,482.5926" ns2:locked="false" />
	<ns1:guide id="guide4154" orientation="0,1" position="188.33333,414.25926" ns2:locked="false" />
	<ns1:guide id="guide4156" orientation="0,1" position="157.22222,475.92593" ns2:locked="false" />
	<ns1:guide id="guide4158" orientation="0,1" position="178.14815,463.33334" ns2:locked="false" />
	<ns1:guide id="guide4160" orientation="0,1" position="260.55556,430.74074" ns2:locked="false" />
	<ns1:guide id="guide4162" orientation="0,1" position="294.62963,419.44445" ns2:locked="false" />
	<ns1:guide id="guide4164" orientation="0,1" position="315.92593,383.33334" ns2:locked="false" />
	<ns1:guide id="guide4166" orientation="0,1" position="301.2963,374.62963" ns2:locked="false" />
	<ns1:guide id="guide4168" orientation="0,1" position="290.55556,353.51852" ns2:locked="false" />
	<ns1:guide id="guide4170" orientation="0,1" position="256.2963,330.18519" ns2:locked="false" />
	<ns1:guide id="guide4172" orientation="0,1" position="246.85185,266.85185" ns2:locked="false" />
	<ns1:guide id="guide4174" orientation="0,1" position="269.07407,190" ns2:locked="false" />
	<ns1:guide id="guide4176" orientation="0,1" position="288.7037,137.03704" ns2:locked="false" />
	<ns1:guide id="guide4178" orientation="0,1" position="276.48148,87.222223" ns2:locked="false" />
	<ns1:guide id="guide4180" orientation="1,0" position="188.88889,486.66667" ns2:locked="false" />
	<ns1:guide id="guide4219" orientation="0,1" position="469.16667,575.46297" ns2:locked="false" />
	<ns1:guide id="guide4225" orientation="0,1" position="107.86773,554.27594" ns2:locked="false" />
	<ns1:guide id="guide4272" orientation="0,1" position="171.76039,312.95844" ns2:locked="false" />
	<ns1:guide id="guide4278" orientation="0,1" position="171.0269,235.08558" ns2:locked="false" />
	<ns1:guide id="guide4280" orientation="0,1" position="178.85086,239.6088" ns2:locked="false" />
	<ns1:guide id="guide4282" orientation="0,1" position="185.94132,221.63814" ns2:locked="false" />
	<ns1:guide id="guide4284" orientation="0,1" position="187.65281,204.64548" ns2:locked="false" />
	<ns1:guide id="guide4290" orientation="0,1" position="143.64303,165.15893" ns2:locked="false" />
	<ns1:guide id="guide4304" orientation="0,1" position="191.56479,82.885086" ns2:locked="false" />
	<ns1:guide id="guide4306" orientation="0,1" position="193.03179,78.606357" ns2:locked="false" />
	<ns1:guide id="guide4308" orientation="0,1" position="194.13203,67.481663" ns2:locked="false" />
	<ns1:guide id="guide4310" orientation="0,1" position="192.17604,60.635697" ns2:locked="false" />
	<ns1:guide id="guide4312" orientation="0,1" position="190.22005,55.745722" ns2:locked="false" />
	<ns1:guide id="guide4314" orientation="0,1" position="191.56479,52.567237" ns2:locked="false" />
	<ns1:guide id="guide4316" orientation="0,1" position="191.68704,41.687042" ns2:locked="false" />
	<ns1:guide id="guide4318" orientation="0,1" position="198.41076,38.264059" ns2:locked="false" />
	<ns1:guide id="guide4320" orientation="0,1" position="192.90954,36.674817" ns2:locked="false" />
	<ns1:guide id="guide4322" orientation="0,1" position="193.76528,29.095355" ns2:locked="false" />
	<ns1:guide id="guide4324" orientation="0,1" position="190.3423,21.882641" ns2:locked="false" />
	<ns1:guide id="guide4334" orientation="0,1" position="203.51852,659.72223" ns2:locked="false" />
	<ns1:guide id="guide4336" orientation="0,1" position="212.77778,663.24074" ns2:locked="false" />
	<ns1:guide id="guide4338" orientation="0,1" position="210.55556,643.05556" ns2:locked="false" />
	<ns1:guide id="guide4340" orientation="0,1" position="212.22222,641.48149" ns2:locked="false" />
	<ns1:guide id="guide4342" orientation="0,1" position="219.07407,635.27778" ns2:locked="false" />
	<ns1:guide id="guide4344" orientation="0,1" position="219.07407,625.18519" ns2:locked="false" />
	<ns1:guide id="guide4346" orientation="0,1" position="243.64303,699.75551" ns2:locked="false" />
	<ns1:guide id="guide4494" orientation="1,0" position="563.70968,600.37037" ns2:locked="false" />
</ns1:namedview>
<path class="st0" d="M404.3,457.5c-1.2,14,8.3,87.3,13.1,116.1c2.3,13.6,8.7,35.9,6.4,47.7c-3.3,16.5-4.2,37.7-2.4,50.1  c1.1,7.5,1.2,41.4-0.4,55c-2,16.7-7.6,40.8-7.6,40.8c-7.3,25.3-8.1,31.4-2.9,33.6s8.1-2.6,8.1-2.6c5.1,3.3,8.7-0.8,8.7-0.8  c4.4,3.7,9.6-0.4,9.6-0.4c5.5,2.9,9.7-1.6,9.7-1.6c2.7,3,6.7,0.9,7-2.6c0.6-7.6-1.4-10.8-7.4-29.9s3.5-42.8,3.5-42.8  c23.3-69,24.5-87.3,15.2-113.4c-2.6-7.5-2.3-10.3-2.1-13.7c1.1-21.4,0.8-37.8,4.2-49.8c6.6-23.2,13-82,16.4-109.4  c0.6-5,0.8-10.2,0.6-15.5c-3.7,0.4-19.8,2.7-40,11c-2.4,1-4.8,2.1-7.1,3.3c-15.6,8.4-28.9,21.7-31.9,24.4  C404.6,457.1,404.4,457.3,404.3,457.5z" id="leg_left" style="fill:#649eff;fill-rule:evenodd;stroke:grey;stroke-linecap:butt;stroke-linejoin:miter;stroke-opacity:1;stroke-width:2px" />
<path class="st0" d="M356.2,429.1c-20.6-8.4-36.7-10.5-40.1-10.9c-0.2,5.3,0,10.5,0.6,15.5c3.3,27.5,13,85.5,16.4,109.4  c2.1,15,1.8,33,4.2,49.8c0.5,3.5,0.6,6.3-2.1,13.7c-9.3,26-8.1,44.3,15.2,113.4c0,0,7.2,15.3,3.5,42.8c0,0-10.6,24.9-6.9,30.8  c0.8,1.3,3.6,2.8,6.3,0.9c0,0,4.4,5.2,10,2.4c0,0,5.1,4.1,9.5,0.4c0,0,3.5,4.1,8.7,0.8c0,0,3.2,2.8,7,2c4.7-1,7.9-4.7-1.8-32.9  c0,0-5.1-25.1-7.5-40.8c-2.1-13.5-1.5-47.5-0.4-55c1.8-12.5,0.8-33.7-2.4-50.1c-2.3-11.8,4-34,6.4-47.7  c4.8-28.7,14.3-102,13.1-116.1C395.8,457.4,377.1,437.7,356.2,429.1z" id="leg_right" style="fill:#78aaff;fill-rule:evenodd;stroke:grey;stroke-linecap:butt;stroke-linejoin:miter;stroke-opacity:1;stroke-width:2px" />
<path class="st1" d="M549.2,396.4c-4.7-5.9-10.8-13.9-12.6-18.6c-2.9-8-5.1-33.6-5.1-33.6c-0.9-30.3-8.4-43.4-8.4-43.4  c-12.8-20.5-15.2-58.7-15.2-58.7l-0.6-64.5c-3-29.9-18.9-39.6-28.9-42.8c-3.9,5.9-10.3,17.8-13.6,35.6c-2.8,15.4,4.4,55.2,4.4,55.2  c5.8,46,8.9,69.2,8.9,69.2c-1.5,26.6,21.5,67.2,21.5,67.2c11,16.8,9,31.1,9,32.3c0,4.8,0.1,19.7,1,26.9c0.9,7.2,0.7,13.4,0.3,17.7  c-1.4,14.9-1.2,20,1.6,20c2.2,0,2.8-4,3.5-8c0.6-3.5,1.5-7.3,2.2-11.5c0.5-3.3,0.8-5.6,2.1-6.1c1.2-0.5,2.2,0,2.2,2.9  c0.1,8.2,0.7,19.8,0.9,24.4c0.3,5.7,0.6,8.9,3.8,8.7c3.2-0.2,3.8-3.1,3.9-4.4c0.1-3.5,0.2-7.2,0.2-11.2c0-5.1,0.2-9.6,0.1-12.5  c-0.2-4.4,0-6.7,1.4-7c1.3-0.3,2.6,12.9,3.9,16.6c1.6,4.8,2.5,8.1,3.5,11.2c2,6.5,3.5,9.5,6,8.5c3.4-1.3,2.3-8.8,0.4-16.6  c-0.9-3.9-1.8-8.6-2.4-12.5c-0.7-4.5-2.2-8.8-1-9.2s3.3,5.7,4.4,8.5c2.9,7.1,4.1,10.6,5,12.8c3.2,8,5.8,9.1,8.1,8.4  c1.2-0.4,2.3-2,0.5-8.3c-1.1-3.9-3.4-9.1-4.7-13.3c-1.6-5.2-3.4-11.1-4.8-16c-1.9-6.4-2.2-9.1-0.6-10c1.7-0.9,2.6,0.8,3.7,3.1  c1.9,3.7,3.6,8.3,7.3,11.3c2.7,2.2,5.3,3.7,7.3,1.7c2.9-2.9,1.3-5.2-2.4-11.1C561.3,412.1,554.4,402.9,549.2,396.4z" id="arm_left" style="fill:#649eff;fill-rule:evenodd;stroke:grey;stroke-linecap:butt;stroke-linejoin:miter;stroke-opacity:1;stroke-width:2px" />
<path class="st1" d="M250.6,396.4c4.7-5.9,10.8-13.9,12.6-18.6c2.9-8,5.1-33.6,5.1-33.6c0.9-30.3,8.4-43.4,8.4-43.4  c12.8-20.5,15.2-58.7,15.2-58.7l0.6-64.5c3-29.9,18.9-39.6,28.9-42.8c3.9,5.9,10.3,17.8,13.6,35.6c2.8,15.4-4.4,55.2-4.4,55.2  c-5.8,46-8.9,69.2-8.9,69.2c1.5,26.6-21.5,67.2-21.5,67.2c-11,16.8-9,31.1-9,32.3c0,4.8-0.1,19.7-1,26.9c-0.9,7.2-0.7,13.4-0.3,17.7  c1.4,14.9,1.2,20-1.6,20c-2.2,0-2.8-4-3.5-8c-0.6-3.5-1.5-7.3-2.2-11.5c-0.5-3.3-0.8-5.6-2.1-6.1c-1.2-0.5-2.2,0-2.2,2.9  c-0.1,8.2-0.7,19.8-0.9,24.4c-0.3,5.7-0.6,8.9-3.8,8.7c-3.2-0.2-3.8-3.1-3.9-4.4c-0.1-3.5-0.2-7.2-0.2-11.2c0-5.1-0.2-9.6-0.1-12.5  c0.2-4.4,0-6.7-1.4-7c-1.3-0.3-2.6,12.9-3.9,16.6c-1.6,4.8-2.5,8.1-3.5,11.2c-2,6.5-3.5,9.5-6,8.5c-3.4-1.3-2.3-8.8-0.4-16.6  c0.9-3.9,1.8-8.6,2.4-12.5c0.7-4.5,2.2-8.8,1-9.2c-1.2-0.4-3.3,5.7-4.4,8.5c-2.9,7.1-4.1,10.6-5,12.8c-3.2,8-5.8,9.1-8.1,8.4  c-1.2-0.4-2.3-2-0.5-8.3c1.1-3.9,3.4-9.1,4.7-13.3c1.6-5.2,3.4-11.1,4.8-16c1.9-6.4,2.2-9.1,0.6-10c-1.7-0.9-2.6,0.8-3.7,3.1  c-1.9,3.7-3.6,8.3-7.3,11.3c-2.7,2.2-5.3,3.7-7.3,1.7c-2.9-2.9-1.3-5.2,2.4-11.1C238.5,412.1,245.5,402.9,250.6,396.4z" id="arm_right" style="fill:#78aaff;fill-rule:evenodd;stroke:grey;stroke-linecap:butt;stroke-linejoin:miter;stroke-opacity:1;stroke-width:2px" />
<path class="st0" d="M332.8,347.1C332.8,347.1,332.8,347.2,332.8,347.1c0,0-15.4,37.1-16.7,71.1c3.4,0.4,19.5,2.5,40.1,10.9  c20.9,8.6,36.7,25.2,39.6,28.3c0,0,1.9,1.3,3.9,1.3s4.6-1.4,4.6-1.4c0.1-0.1,0.3-0.2,0.6-0.5c4.1-4.3,16.2-16.2,31.9-24.4  c2.3-1.3,4.7-2.4,7.1-3.4c20.2-8.3,36.3-10.5,40-11c-1.2-33.9-16.6-71-16.6-71c0,0,0,0,0,0c-4.8,1.6-34,10.8-67.3,10.8  C366.5,357.9,337.2,348.6,332.8,347.1z" id="abdomen" style="fill:#4188ff;fill-rule:evenodd;stroke:grey;stroke-linecap:butt;stroke-linejoin:miter;stroke-opacity:1;stroke-width:2px" />


<path class="st0" d="M465,170.4c3.3-17.8,9.7-29.7,13.6-35.6c-4.7-1.5-8-1.5-8-1.5c-32.8-4.9-37.3-15.5-37.3-15.5  s-10,16.9-33.2,16.9c-23.2,0-33.2-16.9-33.2-16.9c0,0-4.5,10.6-37.3,15.5c0,0-3.5,0-8.3,1.6c3.8,5.7,10.5,17.8,13.9,36  c2.8,15.4-4.3,54.8-4.3,54.8s6.5,101.2,2.1,121.5c4.4,1.5,33.6,10.8,67.2,10.8c33.3,0,62.4-9.2,67.3-10.8  c-4.5-20.2,2.1-121.5,2.1-121.5S462.2,185.8,465,170.4z" id="torso" style="fill:#cccccc;fill-rule:evenodd;stroke:grey;stroke-linecap:butt;stroke-linejoin:miter;stroke-opacity:1;stroke-width:2px" />
<path class="st2" d="M400,108.5c-17.2,0-30.3-19.8-30.3-19.8c0,0,4,19.1-3,29.1v0c0,0,10,16.9,33.2,16.9c23.2,0,33.2-16.9,33.2-16.9  c-6.9-10-3-29.1-3-29.1S417.2,108.5,400,108.5z" id="neck" style="fill:#92bbff;fill-rule:evenodd;stroke:grey;stroke-linecap:butt;stroke-linejoin:miter;stroke-opacity:1;stroke-width:2px" />
<path class="st0" d="M442.9,53.6c-2.1,0.1-2.7-1-2.8-1.8c0,0.7-0.2,3.6-0.7,9c-0.6,6.3-1.2,10.7-1.2,10.7  C447.8,64.2,447.3,53.5,442.9,53.6z" id="ear_left" style="fill:#cccccc;fill-rule:evenodd;stroke:grey;stroke-linecap:butt;stroke-linejoin:miter;stroke-opacity:1;stroke-width:2px" />
<path class="st0" d="M357,53.6c-4.4-0.1-4.8,10.5,4.6,17.9c-0.2-1.6-0.7-5.7-1.1-10.6c-0.3-3.7-0.6-6.9-0.7-8.9  C359.7,52.8,359.1,53.7,357,53.6z" id="ear_right" style="fill:#cccccc;fill-rule:evenodd;stroke:grey;stroke-linecap:butt;stroke-linejoin:miter;stroke-opacity:1;stroke-width:2px" />
<path class="st3" d="M435.5,19.7C425.3,1.3,403.3,0,403.3,0h-6.5c0,0-22,1.3-32.3,19.7c-0.7,1.2-1.3,2.4-1.8,3.8  c4,5.1,14.2,13.5,37.4,13.5c23.1,0,33.3-8.4,37.4-13.5C436.8,22.2,436.2,20.9,435.5,19.7z" id="brain" style="fill:#4188ff;fill-rule:evenodd;stroke:grey;stroke-linecap:butt;stroke-linejoin:miter;stroke-opacity:1;stroke-width:2px" />
<path class="st0" d="M400,37c-23.1,0-33.3-8.4-37.4-13.5c-2.9,6.9-4.2,15.8-2.8,27.3c0,0,0.2,0.6,0,1.2c0.1,2,0.4,5.2,0.7,8.9  c0.4,5,1,9.2,1.1,10.7c0,0,2.3,12.4,8,17.1v0c0,0,13,19.8,30.3,19.8L400,37C400,37,400,37,400,37z" id="face_right" style="fill:#78aaff;fill-rule:evenodd;stroke:grey;stroke-linecap:butt;stroke-linejoin:miter;stroke-opacity:1;stroke-width:2px" />
<path class="st0" d="M437.4,23.5C433.3,28.6,423.1,37,400,37v71.5c17.2,0,30.3-19.8,30.3-19.8c5.8-4.7,8-17.1,8-17.1c0,0,0,0,0,0  c0-0.1,0.7-4.4,1.2-10.7c0.5-5.4,0.6-8.3,0.7-9c-0.1-0.6,0.1-1,0.1-1C441.6,39.3,440.3,30.4,437.4,23.5z" id="face_left" style="fill:#78aaff;fill-rule:evenodd;stroke:grey;stroke-linecap:butt;stroke-linejoin:miter;stroke-opacity:1;stroke-width:2px" />
</svg>